<svg xmlns="http://www.w3.org/2000/svg" width="64" height="64" viewBox="-2.5 -2.5 64 64" xml:space="preserve"><circle fill="#196DB5" cx="29.5" cy="29.5" r="30"/><circle fill="#F6F6F5" cx="29.5" cy="29.5" r="27.5"/><linearGradient id="a" gradientUnits="userSpaceOnUse" x1="252.101" y1="-397.49" x2="252.101" y2="-347.49" gradientTransform="matrix(1 0 0 -1 -222.6 -342.99)"><stop offset="0" style="stop-color:#fff"/><stop offset="1" style="stop-color:#e5e5e5"/></linearGradient><circle fill="url(#a)" cx="29.5" cy="29.5" r="25"/><path fill="#666" d="M45.3 30.4c0 2-.4 4-1.2 5.9-.8 1.9-1.9 3.5-3.2 4.8-1.4 1.4-3 2.4-4.8 3.2-1.9.8-3.8 1.2-5.9 1.2s-4-.4-5.9-1.2c-1.9-.8-3.5-1.9-4.8-3.2-1.4-1.4-2.4-3-3.2-4.8-.8-1.9-1.2-3.8-1.2-5.9 0-2.4.5-4.6 1.6-6.8 1.1-2.1 2.5-3.9 4.5-5.3.6-.4 1.2-.6 1.9-.5.7.1 1.2.4 1.6 1 .4.6.6 1.2.5 1.9-.1.7-.4 1.2-1 1.7-1.3 1-2.3 2.2-3 3.6-.7 1.4-1.1 2.9-1.1 4.5 0 1.4.3 2.7.8 3.9.5 1.2 1.3 2.3 2.2 3.2.9.9 2 1.6 3.2 2.2 1.2.5 2.5.8 3.9.8s2.7-.3 3.9-.8c1.2-.5 2.3-1.3 3.2-2.2.9-.9 1.6-2 2.2-3.2.5-1.2.8-2.5.8-3.9 0-1.6-.4-3.1-1.1-4.5-.7-1.4-1.7-2.6-3-3.6-.6-.4-.9-1-1-1.7-.1-.7.1-1.3.5-1.9.4-.6 1-.9 1.7-1 .7-.1 1.3.1 1.9.5 1.9 1.4 3.4 3.2 4.5 5.3s1.5 4.5 1.5 6.8zM32.7 15.3v12.6c0 .7-.2 1.3-.7 1.8-.5.5-1.1.7-1.8.8-.7 0-1.3-.2-1.8-.8-.5-.5-.7-1.1-.7-1.8V15.3c0-.7.2-1.3.7-1.8.5-.5 1.1-.7 1.8-.8.7 0 1.3.2 1.8.8.5.5.7 1.1.7 1.8z"/></svg>