<svg xmlns="http://www.w3.org/2000/svg" width="64" height="64" viewBox="-2.5 -2.5 64 64" xml:space="preserve"><circle fill="#196DB5" cx="29.5" cy="29.5" r="30"/><circle fill="#F6F6F5" cx="29.5" cy="29.5" r="27.5"/><linearGradient id="a" gradientUnits="userSpaceOnUse" x1="252.101" y1="-397.49" x2="252.101" y2="-347.49" gradientTransform="matrix(1 0 0 -1 -222.6 -342.99)"><stop offset="0" style="stop-color:#fff"/><stop offset="1" style="stop-color:#e5e5e5"/></linearGradient><circle fill="url(#a)" cx="29.5" cy="29.5" r="25"/><path fill="#666" d="M45.3 40c0 1.7-.5 3-1.5 4s-2.4 1.5-4.1 1.5H21.2c-1.7 0-3.1-.5-4.1-1.5-1-1-1.5-2.3-1.5-4 0-.7 0-1.5.1-2.2.1-.7.1-1.5.3-2.3.1-.8.3-1.6.6-2.3.2-.7.5-1.4.9-2.1.4-.7.8-1.2 1.3-1.7s1.1-.8 1.8-1.1c.7-.3 1.5-.4 2.4-.4.1 0 .4.2.9.5s1 .6 1.6 1c.6.4 1.3.7 2.3 1 .9.3 1.9.5 2.8.5.9 0 1.9-.2 2.8-.5.9-.3 1.7-.6 2.3-1 .6-.4 1.1-.7 1.6-1 .5-.3.8-.5.9-.5.9 0 1.6.1 2.4.4.7.3 1.3.7 1.8 1.1.5.5.9 1 1.3 1.7s.7 1.4.9 2.1c.2.7.4 1.5.6 2.3.1.8.2 1.6.3 2.3-.2.8-.2 1.5-.2 2.2zm-6.7-18.8c0 2.2-.8 4.1-2.4 5.7-1.6 1.6-3.5 2.4-5.7 2.4s-4.1-.8-5.7-2.4c-1.6-1.6-2.4-3.5-2.4-5.7s.8-4.1 2.4-5.7c1.6-1.6 3.5-2.4 5.7-2.4s4.1.8 5.7 2.4c1.6 1.5 2.4 3.4 2.4 5.7z"/></svg>