<svg xmlns="http://www.w3.org/2000/svg" width="64" height="64" viewBox="-2.5 -2.5 64 64" xml:space="preserve"><circle fill="#196DB5" cx="29.5" cy="29.5" r="30"/><circle fill="#F6F6F5" cx="29.5" cy="29.5" r="27.5"/><linearGradient id="a" gradientUnits="userSpaceOnUse" x1="252.101" y1="-397.49" x2="252.101" y2="-347.49" gradientTransform="matrix(1 0 0 -1 -222.6 -342.99)"><stop offset="0" style="stop-color:#fff"/><stop offset="1" style="stop-color:#e5e5e5"/></linearGradient><circle fill="url(#a)" cx="29.5" cy="29.5" r="25"/><path fill="#666" d="M35.6 29.2c0-1.5-.5-2.8-1.6-3.8-1.1-1.1-2.3-1.6-3.8-1.6s-2.8.5-3.8 1.6c-1.1 1.1-1.6 2.3-1.6 3.8s.5 2.8 1.6 3.8c1.1 1.1 2.3 1.6 3.8 1.6S33 34.1 34 33c1.1-1 1.6-2.3 1.6-3.8zm10.9-2.3v4.7c0 .2-.1.3-.2.5s-.3.2-.4.3L42 33c-.3.8-.5 1.4-.8 1.9.5.7 1.2 1.7 2.3 2.9.1.2.2.3.2.5s-.1.3-.2.5c-.4.5-1.1 1.3-2.1 2.3-1 1-1.7 1.5-2 1.5-.2 0-.4-.1-.6-.2l-2.9-2.3c-.6.3-1.3.6-1.9.8-.2 1.9-.4 3.2-.6 3.9-.1.4-.4.6-.8.6h-4.7c-.2 0-.4-.1-.5-.2-.1-.1-.2-.3-.2-.5l-.7-3.7c-.7-.2-1.3-.5-1.9-.8l-3 2.3c-.1.1-.3.2-.5.2s-.4-.1-.5-.2c-1.8-1.6-2.9-2.8-3.5-3.6-.1-.1-.1-.3-.1-.5s.1-.3.2-.5c.2-.3.6-.8 1.1-1.4.5-.6.9-1.1 1.1-1.5-.4-.7-.7-1.4-.9-2.1l-3.9-.6c-.2 0-.3-.1-.4-.3-.1-.1-.2-.3-.2-.5v-4.7c0-.2.1-.3.2-.5s.2-.2.4-.3l3.9-.6c.2-.6.5-1.3.8-2-.6-.8-1.3-1.8-2.3-2.9-.1-.2-.2-.3-.2-.5 0-.1.1-.3.2-.5.4-.5 1.1-1.3 2.1-2.3 1-1 1.7-1.5 2-1.5.2 0 .4.1.5.2l2.9 2.3c.6-.3 1.3-.6 1.9-.8.2-1.9.4-3.2.6-3.9.1-.4.4-.6.8-.6h4.7c.2 0 .4.1.5.2.1.1.2.3.2.5l.6 3.9c.7.2 1.3.5 1.9.8l3-2.3c.1-.1.3-.2.5-.2s.4.1.5.2c1.8 1.7 3 2.9 3.5 3.6.1.1.1.3.1.5s-.1.3-.2.5c-.2.3-.6.8-1.1 1.4s-.9 1.1-1.1 1.5c.4.7.7 1.4.9 2.1l3.9.6c.2 0 .3.1.4.3.3.1.4.2.4.4z"/></svg>