<svg xmlns="http://www.w3.org/2000/svg" width="64" height="64" viewBox="-2.5 -2.5 64 64"><circle fill="#BC2A4D" cx="29.5" cy="29.5" r="30"/><circle fill="#F6F6F5" cx="29.5" cy="29.5" r="27.5"/><linearGradient id="a" gradientUnits="userSpaceOnUse" x1="29.5" y1="54.5" x2="29.5" y2="4.5"><stop offset="0" stop-color="#fff"/><stop offset="1" stop-color="#e5e5e5"/></linearGradient><circle fill="url(#a)" cx="29.5" cy="29.5" r="25"/><path fill="#BC2A4D" stroke="#FFF" stroke-width="2" d="M50.5-.5l2.8 5.9 6.2 1-4.6 4.6 1.1 6.5-5.5-3.1-5.6 3.1L46 11l-4.4-4.6 6.2-1 2.7-5.9z"/><path fill="#BC2A4D" d="M24 45.5c-2-4.3-.9-6.8.6-9.1 1.7-2.5 2.1-5.1 2.1-5.1s1.3 1.8.8 4.6c2.3-2.7 2.8-7 2.4-8.6 5.2 3.8 7.5 12.1 4.5 18.2 16-9.5 4-23.6 1.9-25.2.7 1.6.8 4.3-.6 5.6-2.4-9.5-8.3-11.4-8.3-11.4.7 4.9-2.5 10.2-5.6 14.2-.1-1.9-.2-3.3-1.2-5.1-.2 3.5-2.8 6.4-3.5 9.9-1.1 4.8.6 8.3 6.9 12z"/></svg>