<svg xmlns="http://www.w3.org/2000/svg" width="64" height="64" viewBox="-2.5 -2.5 64 64"><circle fill="#999999" cx="29.5" cy="29.5" r="30"/><circle fill="#090909" cx="29.5" cy="29.5" r="27.5"/><linearGradient id="c" gradientUnits="userSpaceOnUse" x1="29.5" y1="54.5" x2="29.5" y2="4.5"><stop offset="0" stop-color="#7f7f7f"/><stop offset="1" stop-color="#1a1a1a"/></linearGradient><circle fill="url(#c)" cx="29.5" cy="29.5" r="25"/><path fill="#222" d="M24 45.5c-2-4.3-.9-6.8.6-9.1 1.7-2.5 2.1-5.1 2.1-5.1s1.3 1.8.8 4.6c2.3-2.7 2.8-7 2.4-8.6 5.2 3.8 7.5 12.1 4.5 18.2 16-9.5 4-23.6 1.9-25.2.7 1.6.8 4.3-.6 5.6-2.4-9.5-8.3-11.4-8.3-11.4.7 4.9-2.5 10.2-5.6 14.2-.1-1.9-.2-3.3-1.2-5.1-.2 3.5-2.8 6.4-3.5 9.9-1.1 4.8.6 8.3 6.9 12z"/></svg>
