<svg xmlns="http://www.w3.org/2000/svg" width="64" height="64" viewBox="-2.5 -2.5 64 64">
<circle fill="#D31141" cx="29.5" cy="29.5" r="30"/>
<circle fill="#090909" cx="29.5" cy="29.5" r="27.5"/>
<linearGradient id="a" gradientUnits="userSpaceOnUse" x1="29.5" y1="54.5" x2="29.5" y2="4.5">
<stop offset="0" stop-color="#7f7f7f"/>
<stop offset="1" stop-color="#1a1a1a"/>
</linearGradient>
<circle fill="url(#a)" cx="29.5" cy="29.5" r="25"/>
<g id="b">
<path fill="#D31141" d="M14.5 13.5h24v2h-24zM14.5 19.5h30v2h-30zM14.5 25.5h30v2h-30zM14.5 31.5h30v2h-30zM14.5 37.5h30v2h-30zM14.5 43.5h16v2h-16z"/>
<animate href="#b" attributeName="opacity" attributeType="XML" values="1; 0" begin="0s" dur="1s" repeatCount="indefinite"/>
</g>
<path fill="#D31141" stroke="#000" stroke-width="2" d="M50.5-.5l2.8 5.9 6.2 1-4.6 4.6 1.1 6.5-5.5-3.1-5.6 3.1L46 11l-4.4-4.6 6.2-1 2.7-5.9z"/>
</svg>